<svg width="12" height="11" viewBox="0 0 12 11" fill="none" xmlns="http://www.w3.org/2000/svg">
    <path d="M6.96364 6.36727C6.8388 6.48785 6.68825 6.58456 6.52098 6.65164C6.35371 6.71872 6.17314 6.75479 5.99004 6.75769C5.80695 6.7606 5.62507 6.73029 5.45528 6.66856C5.28548 6.60684 5.13124 6.51497 5.00175 6.39843C4.87226 6.28189 4.77018 6.14307 4.7016 5.99025C4.63301 5.83743 4.59933 5.67375 4.60256 5.50896C4.60579 5.34418 4.64587 5.18166 4.7204 5.03112C4.79493 4.88058 4.90239 4.74508 5.03636 4.63273M1 1L11 10M8.7 7.93C7.923 8.46305 6.97687 8.75835 6 8.77273C2.81818 8.77273 1 5.5 1 5.5C1.5654 4.55168 2.34961 3.72316 3.3 3.07L8.7 7.93ZM5.04545 2.32545C5.35833 2.25954 5.67867 2.22659 6 2.22727C9.18182 2.22727 11 5.5 11 5.5C10.7241 5.96457 10.395 6.40194 10.0182 6.805L5.04545 2.32545Z"
          stroke="white" stroke-linecap="round" stroke-linejoin="round"/>
</svg>
