<svg width="23" height="21" viewBox="0 0 23 21" fill="none" xmlns="http://www.w3.org/2000/svg">
    <g filter="url(#filter0_d_304_1836)">
        <path d="M18 10.7778C18 11.1019 17.863 11.4128 17.6192 11.642C17.3754 11.8712 17.0448 12 16.7 12H6.3C5.95522 12 5.62456 11.8712 5.38076 11.642C5.13696 11.4128 5 11.1019 5 10.7778V2.22222C5 1.89807 5.13696 1.58719 5.38076 1.35798C5.62456 1.12877 5.95522 1 6.3 1H9.55L10.85 2.83333H16.7C17.0448 2.83333 17.3754 2.9621 17.6192 3.19131C17.863 3.42052 18 3.7314 18 4.05556V10.7778Z" fill="#EE7500" />
        <path d="M18 10.7778C18 11.1019 17.863 11.4128 17.6192 11.642C17.3754 11.8712 17.0448 12 16.7 12H6.3C5.95522 12 5.62456 11.8712 5.38076 11.642C5.13696 11.4128 5 11.1019 5 10.7778V2.22222C5 1.89807 5.13696 1.58719 5.38076 1.35798C5.62456 1.12877 5.95522 1 6.3 1H9.55L10.85 2.83333H16.7C17.0448 2.83333 17.3754 2.9621 17.6192 3.19131C17.863 3.42052 18 3.7314 18 4.05556V10.7778Z" stroke="#EE7500" stroke-linecap="round" stroke-linejoin="round" />
    </g>
    <defs>
        <filter id="filter0_d_304_1836" x="0.5" y="0.5" width="22" height="20" filterUnits="userSpaceOnUse" color-interpolation-filters="sRGB">
            <feFlood flood-opacity="0" result="BackgroundImageFix" />
            <feColorMatrix in="SourceAlpha" type="matrix" values="0 0 0 0 0 0 0 0 0 0 0 0 0 0 0 0 0 0 127 0" result="hardAlpha" />
            <feOffset dy="4" />
            <feGaussianBlur stdDeviation="2" />
            <feComposite in2="hardAlpha" operator="out" />
            <feColorMatrix type="matrix" values="0 0 0 0 0 0 0 0 0 0 0 0 0 0 0 0 0 0 0.25 0" />
            <feBlend mode="normal" in2="BackgroundImageFix" result="effect1_dropShadow_304_1836" />
            <feBlend mode="normal" in="SourceGraphic" in2="effect1_dropShadow_304_1836" result="shape" />
        </filter>
    </defs>
</svg>
    