<svg xmlns="http://www.w3.org/2000/svg" viewBox="0 0 841.9 595.3">
    <symbol id="icon-logo" viewBox="0 0 50 30">
        <path
                d="M50 30L31.2219 3.30882C30.5628 2.36786 29.7619 1.5813 28.8185 0.948528C27.8751 0.316385 26.6994 0 25.292 0C23.8243 0 22.6113 0.338443 21.6532 1.0147C20.6944 1.69159 19.9012 2.45609 19.2722 3.30882L0 30H11.0063L25.1123 10.4118L30.5031 18.2206C31.0437 18.9719 31.5753 19.7293 32.0979 20.4926C32.6518 21.3019 33.1382 21.9706 33.558 22.5C32.8392 22.4414 31.9927 22.4118 31.0198 22.4118H20.6649L15.0494 30H50Z"
                fill="#EE7500"/>
    </symbol>
    <symbol id="icon-phone" viewBox="0 0 18 18">
        <path
                d="M16.9995 12.9791L16.4995 12.9666V12.9791H16.9995ZM16.9995 15.3877H16.4995L16.4995 15.3898L16.9995 15.3877ZM15.2457 16.9935L15.1918 17.4906L15.2008 17.4915L15.2457 16.9935ZM8.30312 14.5286L8.57481 14.1089L8.57091 14.1064L8.30312 14.5286ZM3.47627 9.71134L3.89805 9.44279L3.89566 9.43912L3.47627 9.71134ZM1.00653 2.75036L0.508505 2.79545L0.509336 2.80326L1.00653 2.75036ZM2.60744 1.00008V0.500078L2.60697 0.500078L2.60744 1.00008ZM5.02086 1.00008V1.5001L5.02577 1.50005L5.02086 1.00008ZM6.62981 2.38103L7.12553 2.31553L7.12487 2.31092L6.62981 2.38103ZM7.19295 4.63713L6.72461 4.81224L6.72504 4.81337L7.19295 4.63713ZM6.83093 6.33121L7.18414 6.68512L7.18611 6.68313L6.83093 6.33121ZM5.80925 7.35087L5.45605 6.99697C5.29649 7.15621 5.26322 7.40252 5.37481 7.59839L5.80925 7.35087ZM10.6361 12.1682L10.3893 12.603C10.5848 12.7139 10.8302 12.6808 10.9893 12.5221L10.6361 12.1682ZM11.6578 11.1485L11.3066 10.7926L11.3046 10.7946L11.6578 11.1485ZM13.3552 10.7872L13.1796 11.2553L13.1807 11.2558L13.3552 10.7872ZM15.6158 11.3492L15.6855 10.8541L15.6811 10.8535L15.6158 11.3492ZM16.4995 12.9791V15.3877H17.4995V12.9791H16.4995ZM16.4995 15.3898C16.5001 15.5436 16.4686 15.6959 16.4068 15.8369L17.3227 16.2382C17.4405 15.9694 17.5007 15.6791 17.4995 15.3857L16.4995 15.3898ZM16.4068 15.8369C16.345 15.9779 16.2544 16.1046 16.1406 16.2087L16.8159 16.9463C17.0324 16.7481 17.205 16.5069 17.3227 16.2382L16.4068 15.8369ZM16.1406 16.2087C16.0269 16.3129 15.8925 16.3922 15.7461 16.4416L16.0659 17.3891C16.344 17.2952 16.5995 17.1444 16.8159 16.9463L16.1406 16.2087ZM15.7461 16.4416C15.5997 16.491 15.4446 16.5094 15.2907 16.4955L15.2008 17.4915C15.4932 17.5178 15.7878 17.483 16.0659 17.3891L15.7461 16.4416ZM15.2997 16.4964C12.9017 16.2364 10.5984 15.4186 8.57479 14.1089L8.03145 14.9484C10.1863 16.343 12.6388 17.2137 15.1918 17.4906L15.2997 16.4964ZM8.57091 14.1064C6.68909 12.913 5.09372 11.3207 3.89804 9.44281L3.0545 9.97989C4.3291 11.9818 6.02966 13.6789 8.03534 14.9509L8.57091 14.1064ZM3.89566 9.43912C2.57888 7.41049 1.75946 5.1009 1.50372 2.69746L0.509336 2.80326C0.781727 5.36322 1.6545 7.82309 3.05688 9.98357L3.89566 9.43912ZM1.50449 2.70527C1.49066 2.55252 1.50885 2.39856 1.55791 2.25318L0.610412 1.93342C0.516882 2.21057 0.482191 2.50415 0.508567 2.79545L1.50449 2.70527ZM1.55791 2.25318C1.60698 2.10779 1.68586 1.97413 1.78959 1.86071L1.0517 1.18579C0.854247 1.40167 0.703942 1.65628 0.610412 1.93342L1.55791 2.25318ZM1.78959 1.86071C1.89333 1.7473 2.01965 1.65662 2.16055 1.5945L1.75717 0.67947C1.48942 0.797504 1.24915 0.969919 1.0517 1.18579L1.78959 1.86071ZM2.16055 1.5945C2.30145 1.53239 2.4538 1.50022 2.60791 1.50008L2.60697 0.500078C2.31433 0.500353 2.02492 0.561436 1.75717 0.67947L2.16055 1.5945ZM2.60744 1.50008H5.02086V0.500078H2.60744V1.50008ZM5.02577 1.50005C5.29515 1.49741 5.55615 1.59262 5.76015 1.76771L6.41144 1.00889C6.0234 0.675826 5.52741 0.495078 5.01595 0.500102L5.02577 1.50005ZM5.76015 1.76771C5.96412 1.94278 6.09716 2.18572 6.13475 2.45115L7.12487 2.31092C7.05318 1.80469 6.79952 1.34197 6.41144 1.00889L5.76015 1.76771ZM6.13412 2.44654C6.24094 3.25482 6.43903 4.04843 6.72461 4.81224L7.66128 4.46203C7.40215 3.76897 7.22242 3.04889 7.1255 2.31553L6.13412 2.44654ZM6.72504 4.81337C6.79952 5.01113 6.81563 5.226 6.77149 5.43258L7.74941 5.64155C7.83359 5.24763 7.80285 4.83788 7.66086 4.4609L6.72504 4.81337ZM6.77149 5.43258C6.72734 5.63916 6.62476 5.82891 6.47576 5.97929L7.18611 6.68313C7.46969 6.39693 7.66523 6.03547 7.74941 5.64155L6.77149 5.43258ZM6.47773 5.97731L5.45605 6.99697L6.16245 7.70478L7.18414 6.68512L6.47773 5.97731ZM5.37481 7.59839C6.56463 9.68672 8.29709 11.4157 10.3893 12.603L10.8829 11.7333C8.94703 10.6347 7.3443 9.03512 6.24369 7.10335L5.37481 7.59839ZM10.9893 12.5221L12.011 11.5024L11.3046 10.7946L10.2829 11.8143L10.9893 12.5221ZM12.009 11.5044C12.1597 11.3557 12.3501 11.2531 12.5576 11.2089L12.3494 10.2308C11.9553 10.3147 11.5933 10.5096 11.3066 10.7926L12.009 11.5044ZM12.5576 11.2089C12.7651 11.1647 12.981 11.1808 13.1796 11.2553L13.5309 10.3191C13.1536 10.1775 12.7436 10.1469 12.3494 10.2308L12.5576 11.2089ZM13.1807 11.2558C13.9459 11.5407 14.7409 11.7384 15.5506 11.8449L15.6811 10.8535C14.946 10.7567 14.2243 10.5773 13.5297 10.3186L13.1807 11.2558ZM15.5461 11.8443C15.8157 11.8823 16.0617 12.0178 16.2374 12.2248L16.9998 11.5776C16.6653 11.1836 16.1975 10.9262 15.6855 10.8541L15.5461 11.8443ZM16.2374 12.2248C16.4132 12.4318 16.5064 12.6958 16.4997 12.9666L17.4993 12.9915C17.5122 12.4749 17.3343 11.9717 16.9998 11.5776L16.2374 12.2248Z"
                fill="#EE7500"/>
    </symbol>
    <symbol id="icon-search" viewBox="0 0 17 17">
        <path
                d="M15.6464 16.3536C15.8417 16.5488 16.1583 16.5488 16.3536 16.3536C16.5488 16.1583 16.5488 15.8417 16.3536 15.6464L15.6464 16.3536ZM12.7286 12.0214C12.5333 11.8262 12.2167 11.8262 12.0214 12.0214C11.8262 12.2167 11.8262 12.5333 12.0214 12.7286L12.7286 12.0214ZM13.8333 7.66667C13.8333 11.0724 11.0724 13.8333 7.66667 13.8333V14.8333C11.6247 14.8333 14.8333 11.6247 14.8333 7.66667H13.8333ZM7.66667 13.8333C4.26091 13.8333 1.5 11.0724 1.5 7.66667H0.5C0.5 11.6247 3.70863 14.8333 7.66667 14.8333V13.8333ZM1.5 7.66667C1.5 4.26091 4.26091 1.5 7.66667 1.5V0.5C3.70863 0.5 0.5 3.70863 0.5 7.66667H1.5ZM7.66667 1.5C11.0724 1.5 13.8333 4.26091 13.8333 7.66667H14.8333C14.8333 3.70863 11.6247 0.5 7.66667 0.5V1.5ZM16.3536 15.6464L12.7286 12.0214L12.0214 12.7286L15.6464 16.3536L16.3536 15.6464Z"
                fill="#EE7500"/>
    </symbol>
    <symbol id="icon-alerts" viewBox="0 0 16 18">
        <path
                d="M8 1V0.5V1ZM3.33333 5.80085H2.83333H3.33333ZM1 13.0021L0.717202 12.5898C0.536499 12.7137 0.457542 12.9409 0.522417 13.1502C0.587292 13.3595 0.780882 13.5021 1 13.5021V13.0021ZM15 13.0021V13.5021C15.2191 13.5021 15.4127 13.3595 15.4776 13.1502C15.5425 12.9409 15.4635 12.7137 15.2828 12.5898L15 13.0021ZM9.78109 16.4483C9.91672 16.2077 9.83168 15.9028 9.59114 15.7672C9.3506 15.6315 9.04566 15.7166 8.91002 15.9571L9.78109 16.4483ZM7.08998 15.9571C6.95435 15.7166 6.6494 15.6315 6.40886 15.7672C6.16832 15.9028 6.08328 16.2077 6.21891 16.4483L7.08998 15.9571ZM13.1667 5.80085C13.1667 4.39948 12.6257 3.05275 11.6584 2.05763L10.9413 2.75464C11.7243 3.56019 12.1667 4.65569 12.1667 5.80085H13.1667ZM11.6584 2.05763C10.6906 1.06203 9.37493 0.5 8 0.5V1.5C9.10042 1.5 10.1587 1.94958 10.9413 2.75464L11.6584 2.05763ZM8 0.5C6.62507 0.5 5.30942 1.06203 4.34164 2.05763L5.0587 2.75464C5.84126 1.94958 6.89958 1.5 8 1.5V0.5ZM4.34164 2.05763C3.37433 3.05275 2.83333 4.39948 2.83333 5.80085H3.83333C3.83333 4.65569 4.27566 3.56019 5.0587 2.75464L4.34164 2.05763ZM2.83333 5.80085C2.83333 8.52999 2.26545 10.2482 1.72492 11.2676C1.45406 11.7785 1.18759 12.1187 0.996781 12.3259C0.901245 12.4296 0.824324 12.5004 0.774832 12.5428C0.750077 12.564 0.732164 12.5782 0.722193 12.5858C0.717207 12.5896 0.714206 12.5918 0.713329 12.5925C0.71289 12.5928 0.712981 12.5927 0.713621 12.5923C0.713941 12.592 0.714398 12.5917 0.714994 12.5913C0.715292 12.5911 0.715625 12.5909 0.715993 12.5906C0.716177 12.5905 0.716479 12.5903 0.716571 12.5902C0.716882 12.59 0.717202 12.5898 1 13.0021C1.2828 13.4145 1.28314 13.4142 1.28348 13.414C1.28361 13.4139 1.28397 13.4137 1.28422 13.4135C1.28473 13.4131 1.28528 13.4128 1.28586 13.4124C1.28702 13.4115 1.28832 13.4106 1.28976 13.4096C1.29264 13.4076 1.29608 13.4051 1.30006 13.4023C1.30801 13.3965 1.31811 13.389 1.33022 13.3797C1.35442 13.3612 1.38664 13.3355 1.42569 13.302C1.5038 13.2351 1.60917 13.1371 1.73239 13.0033C1.97907 12.7354 2.29594 12.3254 2.60841 11.7361C3.23455 10.5552 3.83333 8.6727 3.83333 5.80085H2.83333ZM1 13.5021H15V12.5021H1V13.5021ZM15 13.0021C15.2828 12.5898 15.2831 12.59 15.2834 12.5902C15.2835 12.5903 15.2838 12.5905 15.284 12.5906C15.2844 12.5909 15.2847 12.5911 15.285 12.5913C15.2856 12.5917 15.2861 12.592 15.2864 12.5923C15.287 12.5927 15.2871 12.5928 15.2867 12.5925C15.2858 12.5918 15.2828 12.5896 15.2778 12.5858C15.2678 12.5782 15.2499 12.564 15.2252 12.5428C15.1757 12.5004 15.0988 12.4296 15.0032 12.3259C14.8124 12.1187 14.5459 11.7785 14.2751 11.2676C13.7346 10.2482 13.1667 8.52999 13.1667 5.80085H12.1667C12.1667 8.6727 12.7654 10.5552 13.3916 11.7361C13.7041 12.3254 14.0209 12.7354 14.2676 13.0033C14.3908 13.1371 14.4962 13.2351 14.5743 13.302C14.6134 13.3355 14.6456 13.3612 14.6698 13.3797C14.6819 13.389 14.692 13.3965 14.6999 13.4023C14.7039 13.4051 14.7074 13.4076 14.7102 13.4096C14.7117 13.4106 14.713 13.4115 14.7141 13.4124C14.7147 13.4128 14.7153 13.4131 14.7158 13.4135C14.716 13.4137 14.7164 13.4139 14.7165 13.414C14.7169 13.4142 14.7172 13.4145 15 13.0021ZM8.91002 15.9571C8.81565 16.1245 8.6812 16.2616 8.52151 16.3563L9.03129 17.2166C9.34389 17.0313 9.60198 16.7659 9.78109 16.4483L8.91002 15.9571ZM8.52151 16.3563C8.36194 16.4508 8.18215 16.5 8 16.5V17.5C8.36289 17.5 8.71857 17.4019 9.03129 17.2166L8.52151 16.3563ZM8 16.5C7.81785 16.5 7.63806 16.4508 7.47849 16.3563L6.96872 17.2166C7.28143 17.4019 7.63711 17.5 8 17.5V16.5ZM7.47849 16.3563C7.3188 16.2616 7.18435 16.1245 7.08998 15.9571L6.21891 16.4483C6.39802 16.7659 6.65611 17.0313 6.96872 17.2166L7.47849 16.3563Z"
                fill="#EE7500"/>
    </symbol>
    <symbol id="icon-cart" viewBox="0 0 18 18">
        <path
                d="M1 0.5C0.723858 0.5 0.5 0.723858 0.5 1C0.5 1.27614 0.723858 1.5 1 1.5V0.5ZM3.90909 1L4.40021 0.906171C4.35518 0.670472 4.14905 0.5 3.90909 0.5V1ZM5.85818 11.2019L6.34943 11.1088L6.3493 11.1081L5.85818 11.2019ZM7.31273 12.4286V11.9285L7.30269 11.9287L7.31273 12.4286ZM14.3818 12.4286L14.3919 11.9286H14.3818V12.4286ZM15.8364 11.2019L16.3276 11.295L16.3283 11.2915L15.8364 11.2019ZM17 4.80952L17.4919 4.89907C17.5185 4.75319 17.4789 4.60304 17.3839 4.48919C17.2889 4.37534 17.1483 4.30952 17 4.30952V4.80952ZM4.63636 4.30952C4.36022 4.30952 4.13636 4.53338 4.13636 4.80952C4.13636 5.08567 4.36022 5.30952 4.63636 5.30952V4.30952ZM7.04545 16.2381C7.04545 16.4049 6.92204 16.5 6.81818 16.5V17.5C7.51765 17.5 8.04545 16.9129 8.04545 16.2381H7.04545ZM6.81818 16.5C6.71433 16.5 6.59091 16.4049 6.59091 16.2381H5.59091C5.59091 16.9129 6.11871 17.5 6.81818 17.5V16.5ZM6.59091 16.2381C6.59091 16.0713 6.71433 15.9762 6.81818 15.9762V14.9762C6.11871 14.9762 5.59091 15.5633 5.59091 16.2381H6.59091ZM6.81818 15.9762C6.92204 15.9762 7.04545 16.0713 7.04545 16.2381H8.04545C8.04545 15.5633 7.51765 14.9762 6.81818 14.9762V15.9762ZM15.0455 16.2381C15.0455 16.4049 14.922 16.5 14.8182 16.5V17.5C15.5177 17.5 16.0455 16.9129 16.0455 16.2381H15.0455ZM14.8182 16.5C14.7143 16.5 14.5909 16.4049 14.5909 16.2381H13.5909C13.5909 16.9129 14.1187 17.5 14.8182 17.5V16.5ZM14.5909 16.2381C14.5909 16.0713 14.7143 15.9762 14.8182 15.9762V14.9762C14.1187 14.9762 13.5909 15.5633 13.5909 16.2381H14.5909ZM14.8182 15.9762C14.922 15.9762 15.0455 16.0713 15.0455 16.2381H16.0455C16.0455 15.5633 15.5177 14.9762 14.8182 14.9762V15.9762ZM1 1.5H3.90909V0.5H1V1.5ZM3.41797 1.09383L5.36706 11.2957L6.3493 11.1081L4.40021 0.906171L3.41797 1.09383ZM5.36693 11.295C5.45423 11.7555 5.69417 12.1738 6.05042 12.4743L6.6951 11.7098C6.51952 11.5617 6.39514 11.3499 6.34943 11.1088L5.36693 11.295ZM6.05042 12.4743C6.40723 12.7752 6.85754 12.9378 7.32276 12.9285L7.30269 11.9287C7.0853 11.933 6.87013 11.8574 6.6951 11.7098L6.05042 12.4743ZM7.31273 12.9286H14.3818V11.9286H7.31273V12.9286ZM14.3718 12.9285C14.837 12.9378 15.2873 12.7752 15.6441 12.4743L14.9994 11.7098C14.8244 11.8574 14.6092 11.933 14.3919 11.9287L14.3718 12.9285ZM15.6441 12.4743C16.0004 12.1738 16.2403 11.7555 16.3276 11.295L15.3451 11.1088C15.2994 11.3499 15.175 11.5617 14.9994 11.7098L15.6441 12.4743ZM16.3283 11.2915L17.4919 4.89907L16.5081 4.71998L15.3444 11.1124L16.3283 11.2915ZM17 4.30952H4.63636V5.30952H17V4.30952Z"
                fill="#EE7500"/>
    </symbol>
    <symbol id="icon-user" viewBox="0 0 18 18">
        <path
                d="M16.5 17C16.5 17.2761 16.7239 17.5 17 17.5C17.2761 17.5 17.5 17.2761 17.5 17H16.5ZM13 11.6667V11.1667V11.6667ZM5 11.6667V11.1667V11.6667ZM1 15.2222H0.5H1ZM0.5 17C0.5 17.2761 0.723858 17.5 1 17.5C1.27614 17.5 1.5 17.2761 1.5 17H0.5ZM17.5 17V15.2222H16.5V17H17.5ZM17.5 15.2222C17.5 14.1263 17.0097 13.0891 16.1606 12.3344L15.4962 13.0818C16.1474 13.6606 16.5 14.4321 16.5 15.2222H17.5ZM16.1606 12.3344C15.3134 11.5813 14.1757 11.1667 13 11.1667V12.1667C13.946 12.1667 14.8432 12.5013 15.4962 13.0818L16.1606 12.3344ZM13 11.1667H5V12.1667H13V11.1667ZM5 11.1667C3.82429 11.1667 2.6866 11.5813 1.83939 12.3344L2.50375 13.0818C3.15684 12.5013 4.05397 12.1667 5 12.1667V11.1667ZM1.83939 12.3344C0.990264 13.0891 0.5 14.1263 0.5 15.2222H1.5C1.5 14.4321 1.85259 13.6606 2.50375 13.0818L1.83939 12.3344ZM0.5 15.2222V17H1.5V15.2222H0.5ZM12.5 4.55556C12.5 6.18936 10.99 7.61111 9 7.61111V8.61111C11.4283 8.61111 13.5 6.84911 13.5 4.55556H12.5ZM9 7.61111C7.01001 7.61111 5.5 6.18936 5.5 4.55556H4.5C4.5 6.84911 6.57171 8.61111 9 8.61111V7.61111ZM5.5 4.55556C5.5 2.92176 7.01001 1.5 9 1.5V0.5C6.57171 0.5 4.5 2.262 4.5 4.55556H5.5ZM9 1.5C10.99 1.5 12.5 2.92176 12.5 4.55556H13.5C13.5 2.262 11.4283 0.5 9 0.5V1.5Z"
                fill="#EE7500"/>
    </symbol>
    <symbol id='icon-exit' viewBox="0 0 18 14">
        <path d="M9 1C9.27614 1 9.5 0.776142 9.5 0.5C9.5 0.223858 9.27614 0 9 0V1ZM2.6 0.5V0V0.5ZM9 14C9.27614 14 9.5 13.7761 9.5 13.5C9.5 13.2239 9.27614 13 9 13V14ZM13.4437 9.8992C13.25 10.096 13.2524 10.4125 13.4492 10.6063C13.646 10.8 13.9625 10.7976 14.1563 10.6008L13.4437 9.8992ZM17 7L17.3563 7.3508C17.5479 7.15619 17.5479 6.84381 17.3563 6.6492L17 7ZM14.1563 3.3992C13.9625 3.20243 13.646 3.19997 13.4492 3.39372C13.2524 3.58746 13.25 3.90403 13.4437 4.1008L14.1563 3.3992ZM6.6 6.5C6.32386 6.5 6.1 6.72386 6.1 7C6.1 7.27614 6.32386 7.5 6.6 7.5V6.5ZM9 0H2.6V1H9V0ZM2.6 0C2.04052 0 1.50555 0.225797 1.11235 0.625149L1.82491 1.32675C2.03182 1.11661 2.31079 1 2.6 1V0ZM1.11235 0.625149C0.719397 1.02424 0.5 1.56389 0.5 2.125H1.5C1.5 1.82415 1.61775 1.53716 1.82491 1.32675L1.11235 0.625149ZM0.5 2.125V11.875H1.5V2.125H0.5ZM0.5 11.875C0.5 12.4361 0.719397 12.9758 1.11235 13.3749L1.82491 12.6732C1.61775 12.4628 1.5 12.1758 1.5 11.875H0.5ZM1.11235 13.3749C1.50555 13.7742 2.04052 14 2.6 14V13C2.31079 13 2.03182 12.8834 1.82491 12.6732L1.11235 13.3749ZM2.6 14H9V13H2.6V14ZM14.1563 10.6008L17.3563 7.3508L16.6437 6.6492L13.4437 9.8992L14.1563 10.6008ZM17.3563 6.6492L14.1563 3.3992L13.4437 4.1008L16.6437 7.3508L17.3563 6.6492ZM17 6.5H6.6V7.5H17V6.5Z"
              fill="#EE7500"/>
    </symbol>
    <symbol id='icon-filter' viewBox="0 0 12 14">
        <path d="M11 5H4.75M11 1.25H1M11 8.75H8.5" stroke="#EE7500" stroke-linecap="round" stroke-linejoin="round"/>
    </symbol>
    <symbol id='icon-favorites' viewBox="0 0 14 18">
        <path
                d="M13 17L12.7024 17.4018C12.8541 17.5142 13.0563 17.5315 13.2249 17.4465C13.3936 17.3616 13.5 17.1889 13.5 17H13ZM7 12.5556L7.29761 12.1538C7.12082 12.0228 6.87918 12.0228 6.70239 12.1538L7 12.5556ZM1 17H0.5C0.5 17.1889 0.606403 17.3616 0.775063 17.4465C0.943724 17.5315 1.14586 17.5142 1.29761 17.4018L1 17ZM2.71429 1V0.5V1ZM11.2857 1V0.5V1ZM13.2976 16.5982L7.29761 12.1538L6.70239 12.9573L12.7024 17.4018L13.2976 16.5982ZM6.70239 12.1538L0.702386 16.5982L1.29761 17.4018L7.29761 12.9573L6.70239 12.1538ZM1.5 17V2.77778H0.5V17H1.5ZM1.5 2.77778C1.5 2.43314 1.63219 2.10612 1.86202 1.86777L1.14218 1.17363C0.729036 1.60208 0.5 2.17942 0.5 2.77778H1.5ZM1.86202 1.86777C2.09127 1.63004 2.39823 1.5 2.71429 1.5V0.5C2.12103 0.5 1.55592 0.744567 1.14218 1.17363L1.86202 1.86777ZM2.71429 1.5H11.2857V0.5H2.71429V1.5ZM11.2857 1.5C11.6018 1.5 11.9087 1.63004 12.138 1.86777L12.8578 1.17363C12.4441 0.744567 11.879 0.5 11.2857 0.5V1.5ZM12.138 1.86777C12.3678 2.10612 12.5 2.43314 12.5 2.77778H13.5C13.5 2.17942 13.271 1.60208 12.8578 1.17363L12.138 1.86777ZM12.5 2.77778V17H13.5V2.77778H12.5Z"
                fill="#EE7500"/>
    </symbol>
    <symbol id='icon-collapse' viewBox="0 0 18 18">
        <path
                d="M3.16667 8.11111C3.16667 8.38725 3.39052 8.61111 3.66667 8.61111C3.94281 8.61111 4.16667 8.38725 4.16667 8.11111H3.16667ZM17 2.77778H17.5H17ZM15.2222 14.3333V14.8333V14.3333ZM9.88889 13.8333C9.61275 13.8333 9.38889 14.0572 9.38889 14.3333C9.38889 14.6095 9.61275 14.8333 9.88889 14.8333V13.8333ZM6.33333 17.5C6.60948 17.5 6.83333 17.2761 6.83333 17C6.83333 16.7239 6.60948 16.5 6.33333 16.5V17.5ZM1 17H0.5C0.5 17.2761 0.723858 17.5 1 17.5V17ZM1.5 11.6667C1.5 11.3905 1.27614 11.1667 1 11.1667C0.723858 11.1667 0.5 11.3905 0.5 11.6667H1.5ZM11.1313 7.57578C11.3266 7.38051 11.3266 7.06393 11.1313 6.86867C10.9361 6.67341 10.6195 6.67341 10.4242 6.86867L11.1313 7.57578ZM4.16667 8.11111V2.77778H3.16667V8.11111H4.16667ZM4.16667 2.77778C4.16667 2.43889 4.30129 2.11388 4.54092 1.87425L3.83381 1.16715C3.40665 1.59431 3.16667 2.17367 3.16667 2.77778H4.16667ZM4.54092 1.87425C4.78055 1.63462 5.10556 1.5 5.44444 1.5V0.5C4.84034 0.5 4.26098 0.739981 3.83381 1.16715L4.54092 1.87425ZM5.44444 1.5L15.2222 1.5V0.5H5.44444V1.5ZM15.2222 1.5C15.5611 1.5 15.8861 1.63462 16.1257 1.87425L16.8329 1.16715C16.4057 0.739981 15.8263 0.5 15.2222 0.5V1.5ZM16.1257 1.87425C16.3654 2.11388 16.5 2.43889 16.5 2.77778H17.5C17.5 2.17367 17.26 1.59431 16.8329 1.16715L16.1257 1.87425ZM16.5 2.77778V12.5556H17.5V2.77778H16.5ZM16.5 12.5556C16.5 12.8944 16.3654 13.2195 16.1257 13.4591L16.8329 14.1662C17.26 13.739 17.5 13.1597 17.5 12.5556H16.5ZM16.1257 13.4591C15.8861 13.6987 15.5611 13.8333 15.2222 13.8333V14.8333C15.8263 14.8333 16.4057 14.5934 16.8329 14.1662L16.1257 13.4591ZM15.2222 13.8333H9.88889V14.8333H15.2222V13.8333ZM6.33333 16.5L1 16.5V17.5L6.33333 17.5V16.5ZM1.5 17V11.6667H0.5V17H1.5ZM10.4242 6.86867L0.646446 16.6464L1.35355 17.3536L11.1313 7.57578L10.4242 6.86867Z"
                fill="#EE7500"/>
    </symbol>
    <symbol id='icon-basket' viewBox="0 0 15 14">
        <path d="M1 1H3.36364L4.94727 8.65143C5.00131 8.91451 5.14931 9.15083 5.36537 9.31903C5.58143 9.48722 5.85178 9.57657 6.12909 9.57143H11.8727C12.15 9.57657 12.4204 9.48722 12.6365 9.31903C12.8525 9.15083 13.0005 8.91451 13.0545 8.65143L14 3.85714H3.95455M6.31818 12.4286C6.31818 12.7442 6.05362 13 5.72727 13C5.40092 13 5.13636 12.7442 5.13636 12.4286C5.13636 12.113 5.40092 11.8571 5.72727 11.8571C6.05362 11.8571 6.31818 12.113 6.31818 12.4286ZM12.8182 12.4286C12.8182 12.7442 12.5536 13 12.2273 13C11.9009 13 11.6364 12.7442 11.6364 12.4286C11.6364 12.113 11.9009 11.8571 12.2273 11.8571C12.5536 11.8571 12.8182 12.113 12.8182 12.4286Z" stroke="#EE7500" stroke-linecap="round" stroke-linejoin="round" fill="#2f2f2f"/>
    </symbol>
    <symbol id='icon-turn' viewBox="0 0 14 14">
        <path d="M11 7.66667V11.6667C11 12.0203 10.8595 12.3594 10.6095 12.6095C10.3594 12.8595 10.0203 13 9.66667 13H2.33333C1.97971 13 1.64057 12.8595 1.39052 12.6095C1.14048 12.3594 1 12.0203 1 11.6667V4.33333C1 3.97971 1.14048 3.64057 1.39052 3.39052C1.64057 3.14048 1.97971 3 2.33333 3H6.33333M9 1H13M13 1V5M13 1L5.66667 8.33333" stroke="#EE7500" stroke-linecap="round" stroke-linejoin="round"/>
    </symbol>
    <symbol id='icon-back' viewBox="0 0 10 18">
        <path d="M9 17L1 9L9 1" stroke="#EE7500" stroke-linecap="round" stroke-linejoin="round" fill="none"/>
    </symbol>
</svg>

